<svg width="172" height="64" viewBox="0 0 172 64" fill="none" xmlns="http://www.w3.org/2000/svg">
<mask id="mask0_998_1419" style="mask-type:alpha" maskUnits="userSpaceOnUse" x="19" y="15" width="134" height="34">
<path d="M22.611 47.561H21.0096C20.6653 47.561 20.3852 47.2796 20.3852 46.9337C20.3852 46.9301 20.3822 46.9271 20.3786 46.9271H19.1179C19.1143 46.9271 19.1113 46.9301 19.1113 46.9337C19.1113 47.9853 19.9629 48.8408 21.0096 48.8408H22.611C23.6577 48.8408 24.5092 47.9853 24.5092 46.9337C24.5092 45.8821 23.6577 45.0266 22.611 45.0266H21.0096C20.6653 45.0266 20.3852 44.7452 20.3852 44.3993C20.3852 44.0535 20.6653 43.7721 21.0096 43.7721H22.611C22.9553 43.7721 23.2353 44.0535 23.2353 44.3993C23.2353 44.403 23.2383 44.406 23.2419 44.406H24.5026C24.5063 44.406 24.5092 44.403 24.5092 44.3993C24.5092 43.3478 23.6577 42.4923 22.611 42.4923H21.0096C19.9628 42.4923 19.1113 43.3478 19.1113 44.3993C19.1113 45.4509 19.9629 46.3064 21.0096 46.3064H22.611C22.9553 46.3064 23.2353 46.5878 23.2353 46.9337C23.2353 47.2796 22.9553 47.561 22.611 47.561Z" fill="white"/>
<path d="M27.2097 48.8409H28.5337C28.5366 48.8409 28.5391 48.839 28.54 48.8363L28.8163 47.9737H30.9855L31.2617 48.8363C31.2626 48.839 31.2651 48.8409 31.268 48.8409H32.592C32.5941 48.8409 32.5961 48.8399 32.5973 48.8382C32.5986 48.8365 32.5989 48.8343 32.5983 48.8323L30.5692 42.497C30.5683 42.4943 30.5658 42.4924 30.5629 42.4924H29.2389C29.236 42.4924 29.2335 42.4943 29.2327 42.497L27.2034 48.8323C27.2028 48.8343 27.2031 48.8365 27.2044 48.8382C27.2056 48.8399 27.2076 48.8409 27.2097 48.8409ZM29.2264 46.6932L29.9009 44.5873L30.5754 46.6932H29.2264Z" fill="white"/>
<path d="M35.7527 48.8407H37.0134C37.017 48.8407 37.02 48.8378 37.02 48.8341V42.4989C37.02 42.4952 37.017 42.4923 37.0134 42.4923H35.7527C35.749 42.4923 35.7461 42.4952 35.7461 42.4989V48.8341C35.7461 48.8378 35.749 48.8407 35.7527 48.8407Z" fill="white"/>
<path d="M40.1745 43.7725H42.2286V48.8341C42.2286 48.8378 42.2315 48.8407 42.2351 48.8407H43.4963C43.4999 48.8407 43.5029 48.8378 43.5029 48.8341V43.7725H45.557C45.5606 43.7725 45.5635 43.7696 45.5635 43.7659V42.4989C45.5635 42.4952 45.5606 42.4923 45.557 42.4923H40.1745C40.1709 42.4923 40.168 42.4952 40.168 42.4989V43.7659C40.168 43.7696 40.1709 43.7725 40.1745 43.7725Z" fill="white"/>
<path d="M47.0037 48.8409H48.3277C48.3306 48.8409 48.3331 48.839 48.3339 48.8363L48.6102 47.9737H50.7794L51.0557 48.8363C51.0566 48.839 51.059 48.8409 51.0619 48.8409H52.386C52.3881 48.8409 52.39 48.8399 52.3913 48.8382C52.3925 48.8365 52.3928 48.8343 52.3923 48.8323L50.3632 42.497C50.3623 42.4943 50.3598 42.4924 50.3569 42.4924H49.0329C49.03 42.4924 49.0275 42.4943 49.0266 42.497L46.9974 48.8323C46.9968 48.8343 46.9971 48.8365 46.9983 48.8382C46.9996 48.8399 47.0015 48.8409 47.0037 48.8409ZM49.0203 46.6932L49.6948 44.5873L50.3693 46.6932H49.0203Z" fill="white"/>
<path d="M60.9308 48.8343C60.9308 48.8379 60.9338 48.8409 60.9374 48.8409H62.1983C62.2019 48.8409 62.2048 48.8379 62.2048 48.8343V42.499C62.2048 42.4954 62.2019 42.4924 62.1983 42.4924H60.7158C60.7136 42.4924 60.7114 42.4936 60.7103 42.4956L58.8724 45.4815L57.0346 42.4956C57.0334 42.4936 57.0313 42.4924 57.029 42.4924H55.5466C55.543 42.4924 55.54 42.4954 55.54 42.499V48.8343C55.54 48.8379 55.543 48.8409 55.5466 48.8409H56.807C56.8106 48.8409 56.8135 48.8379 56.8135 48.8343V44.5694L58.8669 47.9052C58.8692 47.9091 58.8757 47.9091 58.8781 47.9052L60.9309 44.5704L60.9308 48.8343Z" fill="white"/>
<path d="M65.3611 48.8409H66.6851C66.688 48.8409 66.6905 48.839 66.6913 48.8363L66.9676 47.9737H69.1368L69.4131 48.8363C69.414 48.839 69.4165 48.8409 69.4194 48.8409H70.7434C70.7455 48.8409 70.7474 48.8399 70.7487 48.8382C70.75 48.8365 70.7503 48.8343 70.7497 48.8323L68.7206 42.497C68.7197 42.4943 68.7172 42.4924 68.7143 42.4924H67.3903C67.3874 42.4924 67.3849 42.4943 67.384 42.497L65.3548 48.8323C65.3542 48.8343 65.3545 48.8365 65.3558 48.8382C65.357 48.8399 65.359 48.8409 65.3611 48.8409ZM67.3778 46.6932L68.0522 44.5873L68.7267 46.6932H67.3778Z" fill="white"/>
<path d="M84.3754 42.4924H83.1147C83.1111 42.4924 83.1081 42.4954 83.1081 42.4991V46.1304C83.1081 46.9192 82.4693 47.561 81.6841 47.561C80.8989 47.561 80.2601 46.9192 80.2601 46.1304V42.4991C80.2601 42.4954 80.2572 42.4924 80.2536 42.4924H78.9929C78.9893 42.4924 78.9863 42.4954 78.9863 42.4991V46.1304C78.9863 47.6249 80.1966 48.8407 81.6841 48.8407C83.1717 48.8407 84.3819 47.6249 84.3819 46.1304V42.4991C84.3819 42.4954 84.379 42.4924 84.3754 42.4924Z" fill="white"/>
<path d="M87.5349 48.8409H88.7952C88.7989 48.8409 88.8018 48.8379 88.8018 48.8343V44.5699L91.4293 48.8378C91.4304 48.8397 91.4326 48.8409 91.4348 48.8409H92.9172C92.9209 48.8409 92.9238 48.8379 92.9238 48.8343V42.499C92.9238 42.4954 92.9209 42.4924 92.9172 42.4924H91.6564C91.6528 42.4924 91.6498 42.4954 91.6498 42.499V46.7634L89.0229 42.4956C89.0218 42.4936 89.0196 42.4924 89.0174 42.4924H87.5349C87.5313 42.4924 87.5283 42.4954 87.5283 42.499V48.8343C87.5283 48.8379 87.5313 48.8409 87.5349 48.8409Z" fill="white"/>
<path d="M96.0779 48.8407H97.3386C97.3422 48.8407 97.3451 48.8378 97.3451 48.8341V42.4989C97.3451 42.4952 97.3422 42.4923 97.3386 42.4923H96.0779C96.0742 42.4923 96.0713 42.4952 96.0713 42.4989V48.8341C96.0713 48.8378 96.0742 48.8407 96.0779 48.8407Z" fill="white"/>
<path d="M102.529 48.8409H103.853C103.856 48.8409 103.858 48.839 103.859 48.8363L105.888 42.5011C105.889 42.4991 105.889 42.4968 105.887 42.4951C105.886 42.4934 105.884 42.4924 105.882 42.4924H104.558C104.555 42.4924 104.553 42.4943 104.552 42.497L103.191 46.7461L101.83 42.497C101.829 42.4943 101.827 42.4924 101.824 42.4924H100.5C100.498 42.4924 100.496 42.4934 100.494 42.4951C100.493 42.4968 100.493 42.4991 100.493 42.5011L102.523 48.8363C102.524 48.839 102.526 48.8409 102.529 48.8409Z" fill="white"/>
<path d="M109.043 48.8407H114.425C114.429 48.8407 114.432 48.8378 114.432 48.8341V47.5671C114.432 47.5634 114.429 47.5605 114.425 47.5605H110.311V46.3066H113.165C113.168 46.3066 113.171 46.3037 113.171 46.3V45.033C113.171 45.0293 113.168 45.0264 113.165 45.0264H110.311V43.7725H114.425C114.429 43.7725 114.432 43.7696 114.432 43.7659V42.4989C114.432 42.4952 114.429 42.4923 114.425 42.4923H109.043C109.039 42.4923 109.036 42.4952 109.036 42.4989V48.8341C109.036 48.8378 109.039 48.8407 109.043 48.8407Z" fill="white"/>
<path d="M117.586 48.8409H118.847C118.85 48.8409 118.853 48.8379 118.853 48.8343V47.4531H120.506C120.546 47.4531 120.587 47.452 120.626 47.45L121.481 48.8378C121.482 48.8397 121.484 48.8409 121.486 48.8409H122.968C122.97 48.8409 122.973 48.8396 122.974 48.8375C122.975 48.8354 122.975 48.8329 122.974 48.8309L121.871 47.039C122.562 46.5782 122.975 45.8065 122.975 44.9728C122.975 43.6051 121.867 42.4924 120.506 42.4924H117.586C117.582 42.4924 117.579 42.4954 117.579 42.4991V48.8343C117.579 48.8379 117.582 48.8409 117.586 48.8409ZM121.195 45.9534C120.993 46.0972 120.755 46.1732 120.506 46.1732H118.853V43.7724H120.506C121.165 43.7724 121.701 44.3109 121.701 44.9728C121.701 45.362 121.512 45.7286 121.195 45.9534Z" fill="white"/>
<path d="M129.486 47.561H127.885C127.54 47.561 127.26 47.2796 127.26 46.9337C127.26 46.9301 127.257 46.9271 127.254 46.9271H125.993C125.989 46.9271 125.986 46.9301 125.986 46.9337C125.986 47.9853 126.838 48.8408 127.885 48.8408H129.486C130.533 48.8408 131.384 47.9853 131.384 46.9337C131.384 45.8821 130.533 45.0266 129.486 45.0266H127.885C127.54 45.0266 127.26 44.7452 127.26 44.3993C127.26 44.0535 127.54 43.7721 127.885 43.7721H129.486C129.83 43.7721 130.11 44.0535 130.11 44.3993C130.11 44.403 130.113 44.406 130.117 44.406H131.378C131.381 44.406 131.384 44.403 131.384 44.3993C131.384 43.3478 130.533 42.4923 129.486 42.4923H127.885C126.838 42.4923 125.986 43.3478 125.986 44.3993C125.986 45.4509 126.838 46.3064 127.885 46.3064H129.486C129.83 46.3064 130.11 46.5878 130.11 46.9337C130.11 47.2796 129.83 47.561 129.486 47.561Z" fill="white"/>
<path d="M134.536 48.8407H135.797C135.8 48.8407 135.803 48.8378 135.803 48.8341V42.4989C135.803 42.4952 135.8 42.4923 135.797 42.4923H134.536C134.532 42.4923 134.529 42.4952 134.529 42.4989V48.8341C134.529 48.8378 134.532 48.8407 134.536 48.8407Z" fill="white"/>
<path d="M138.958 43.7725H141.012V48.8341C141.012 48.8378 141.015 48.8407 141.018 48.8407H142.28C142.283 48.8407 142.286 48.8378 142.286 48.8341V43.7725H144.34C144.344 43.7725 144.347 43.7696 144.347 43.7659V42.4989C144.347 42.4952 144.344 42.4923 144.34 42.4923H138.958C138.954 42.4923 138.951 42.4952 138.951 42.4989V43.7659C138.951 43.7696 138.954 43.7725 138.958 43.7725Z" fill="white"/>
<path d="M152.888 42.4955C152.886 42.4936 152.884 42.4924 152.882 42.4924H151.494C151.491 42.4924 151.489 42.4939 151.488 42.4963L150.191 45.3159L148.894 42.4963C148.893 42.494 148.891 42.4924 148.888 42.4924H147.5C147.497 42.4924 147.495 42.4936 147.494 42.4955C147.493 42.4974 147.493 42.4998 147.494 42.5019L149.49 46.8445L149.554 46.9827V48.8343C149.554 48.8379 149.557 48.8409 149.561 48.8409H150.821C150.825 48.8409 150.828 48.8379 150.828 48.8343V46.9831L150.892 46.8444C150.892 46.8443 150.891 46.844 150.892 46.8438L152.888 42.5018C152.889 42.4998 152.889 42.4974 152.888 42.4955Z" fill="white"/>
<path d="M38.1485 37.556C38.1485 37.5689 38.1589 37.5794 38.1717 37.5794H42.6244C42.6372 37.5794 42.6476 37.5689 42.6476 37.556V15.1836C42.6476 15.1707 42.6372 15.1603 42.6244 15.1603H37.3893C37.3813 15.1603 37.3737 15.1644 37.3696 15.1713L30.8795 25.716L24.3893 15.1713C24.3852 15.1644 24.3776 15.1603 24.3696 15.1603H19.1346C19.1217 15.1603 19.1113 15.1707 19.1113 15.1836V37.556C19.1113 37.5689 19.1217 37.5794 19.1346 37.5794H23.5854C23.5982 37.5794 23.6086 37.5689 23.6086 37.556V22.4948L30.8598 34.2749C30.8681 34.2888 30.891 34.2888 30.8993 34.2749L38.1487 22.4986L38.1485 37.556Z" fill="white"/>
<path d="M73.9891 22.1294C73.9934 22.1363 74.0008 22.1404 74.0088 22.1404C74.0168 22.1404 74.0242 22.1363 74.0285 22.1294L78.2972 15.1953C78.3016 15.1881 78.3018 15.1791 78.2977 15.1716C78.2937 15.1642 78.2859 15.1597 78.2775 15.1597H69.7401C69.7318 15.1597 69.724 15.1642 69.7199 15.1716C69.7158 15.1791 69.716 15.1881 69.7204 15.1953L73.9891 22.1294ZM74.0287 30.609C74.0201 30.5954 73.9977 30.5954 73.9891 30.609L69.7204 37.5431C69.716 37.5504 69.7158 37.5594 69.7199 37.5668C69.724 37.5743 69.7318 37.5788 69.7401 37.5788H78.2775C78.2859 37.5788 78.2937 37.5743 78.2977 37.5668C78.3018 37.5594 78.3016 37.5504 78.2972 37.5431L74.0287 30.609ZM71.4123 26.3578L64.527 15.1707C64.5267 15.17 64.5256 15.1698 64.525 15.169C64.5233 15.1668 64.5213 15.1655 64.5189 15.164C64.5166 15.1627 64.5146 15.1617 64.512 15.1612C64.5103 15.1608 64.509 15.1591 64.5072 15.1591H55.4346C55.4342 15.1591 55.4339 15.1597 55.4335 15.1597H52.6656C52.6556 15.1597 52.6465 15.1662 52.6435 15.1759L45.4776 37.5483C45.4754 37.5554 45.4767 37.5633 45.481 37.5693C45.4853 37.5752 45.4923 37.5788 45.4998 37.5788H50.1754C50.1854 37.5788 50.1946 37.5722 50.1975 37.5625L51.1732 34.5163H58.8337L59.8094 37.5625C59.8125 37.5722 59.8215 37.5788 59.8315 37.5788H64.5072C64.5086 37.5788 64.5101 37.5786 64.5116 37.5784C64.5174 37.5773 64.522 37.5739 64.5254 37.5696C64.5254 37.5694 64.5257 37.5694 64.5259 37.5693C64.5261 37.5691 64.5259 37.5685 64.5261 37.5683C64.5263 37.5681 64.5267 37.5681 64.5269 37.5679L71.4121 26.3827C71.4168 26.375 71.4168 26.3655 71.4123 26.3578ZM52.6216 29.9942L55.0035 22.5573L57.3853 29.9942H52.6216Z" fill="white"/>
<path d="M81.1326 37.5786H85.5847C85.5975 37.5786 85.6079 37.5682 85.6079 37.5553V15.1829C85.6079 15.17 85.5975 15.1595 85.5847 15.1595H81.1326C81.1198 15.1595 81.1094 15.17 81.1094 15.1829V37.5553C81.1094 37.5682 81.1198 37.5786 81.1326 37.5786Z" fill="white"/>
<path d="M107.468 37.5559C107.468 37.5688 107.478 37.5792 107.491 37.5792H111.944C111.957 37.5792 111.967 37.5688 111.967 37.5559V15.1834C111.967 15.1706 111.957 15.1601 111.944 15.1601H106.709C106.701 15.1601 106.693 15.1642 106.689 15.1711L100.199 25.7158L93.7086 15.1711C93.7045 15.1642 93.6969 15.1601 93.6889 15.1601H88.4539C88.4411 15.1601 88.4307 15.1706 88.4307 15.1834V37.5559C88.4307 37.5688 88.4411 37.5792 88.4539 37.5792H92.9047C92.9175 37.5792 92.9279 37.5688 92.9279 37.5559V22.4947L100.179 34.2748C100.187 34.2886 100.21 34.2886 100.219 34.2748L107.468 22.4984L107.468 37.5559Z" fill="white"/>
<path d="M124.946 28.0079V15.1826C124.946 15.1697 124.936 15.1593 124.923 15.1593H114.819C114.806 15.1593 114.796 15.1697 114.796 15.1826V28.0079C114.796 30.8189 117.072 33.1058 119.87 33.1058C122.669 33.1058 124.946 30.8189 124.946 28.0079ZM152.866 15.1606H147.631C147.623 15.1606 147.615 15.1647 147.611 15.1718L141.121 25.7165L134.63 15.1716C134.626 15.1647 134.619 15.1604 134.611 15.1604H129.376C129.363 15.1604 129.353 15.1709 129.353 15.1837V28.0075C129.353 33.2594 125.1 37.5321 119.872 37.5321C119.859 37.5321 119.849 37.5425 119.849 37.5554C119.849 37.5683 119.859 37.5788 119.872 37.5788H129.374C129.374 37.5788 129.375 37.5797 129.376 37.5797H133.827C133.839 37.5797 133.85 37.5692 133.85 37.5564V22.4952L141.101 34.2753C141.109 34.2891 141.132 34.2891 141.14 34.2753L148.39 22.4989V37.5564C148.39 37.5692 148.4 37.5797 148.413 37.5797H152.866C152.878 37.5797 152.889 37.5692 152.889 37.5564V15.1839C152.889 15.1709 152.878 15.1606 152.866 15.1606Z" fill="white"/>
</mask>
<g mask="url(#mask0_998_1419)">
<rect width="172" height="64" fill="url(#paint0_linear_998_1419)"/>
</g>
<defs>
<linearGradient id="paint0_linear_998_1419" x1="172" y1="64" x2="56.821" y2="-54.9976" gradientUnits="userSpaceOnUse">
<stop stop-color="#63C178"/>
<stop offset="1" stop-color="#34AA8E"/>
</linearGradient>
</defs>
</svg>
